<svg width="38" height="32" viewBox="0 0 38 32" fill="none" xmlns="http://www.w3.org/2000/svg">
<path d="M18.5629 25.9417C18.7123 25.9417 18.9551 25.8856 19.1886 25.7549C24.5021 22.7759 26.3231 21.5153 26.3231 18.1068V10.9629C26.3231 9.98236 25.9029 9.67419 25.1091 9.33801C24.0072 8.88043 20.4493 7.60107 19.3474 7.2182C19.0952 7.13416 18.8244 7.07812 18.5629 7.07812C18.3015 7.07812 18.0306 7.15283 17.7878 7.2182C16.6859 7.53571 13.1187 8.88977 12.0167 9.33801C11.2323 9.66486 10.8027 9.98236 10.8027 10.9629V18.1068C10.8027 21.5153 12.6331 22.7666 17.9373 25.7549C18.1801 25.8856 18.4135 25.9417 18.5629 25.9417ZM18.9365 8.66565C20.3466 9.22595 23.0827 10.2158 24.5302 10.7108C24.7823 10.8041 24.8383 10.9349 24.8383 11.2524V17.7612C24.8383 20.6468 23.4562 21.4032 19.1419 24.0273C18.8711 24.1954 18.7217 24.2421 18.5723 24.2514V8.5816C18.6656 8.5816 18.787 8.60962 18.9365 8.66565Z" fill="#484840"/>
</svg>
