<svg width="38" height="32" viewBox="0 0 38 32" fill="none" xmlns="http://www.w3.org/2000/svg">
<path d="M18.6875 18.798C19.0891 18.798 19.4252 18.4618 19.4252 18.0696V8.47906L19.3692 7.07831L20.0042 7.74133L21.4143 9.25415C21.545 9.40356 21.7411 9.47827 21.9186 9.47827C22.3108 9.47827 22.6003 9.19812 22.6003 8.81525C22.6003 8.61914 22.5256 8.46973 22.3855 8.32965L19.2291 5.28534C19.0424 5.09857 18.8743 5.0332 18.6875 5.0332C18.5007 5.0332 18.3326 5.09857 18.1459 5.28534L14.9895 8.32965C14.8494 8.46973 14.7654 8.61914 14.7654 8.81525C14.7654 9.19812 15.0549 9.47827 15.4377 9.47827C15.6245 9.47827 15.8206 9.40356 15.9514 9.25415L17.3708 7.74133L18.0058 7.07831L17.9404 8.47906V18.0696C17.9404 18.4618 18.2859 18.798 18.6875 18.798ZM13.3273 26.1099H24.0384C25.9901 26.1099 26.9706 25.1387 26.9706 23.215V13.8953C26.9706 11.9716 25.9901 11.0004 24.0384 11.0004H21.433V12.5039H24.0104C24.9349 12.5039 25.4672 13.0082 25.4672 13.9794V23.131C25.4672 24.1022 24.9349 24.6064 24.0104 24.6064H13.3459C12.4121 24.6064 11.8985 24.1022 11.8985 23.131V13.9794C11.8985 13.0082 12.4121 12.5039 13.3459 12.5039H15.9327V11.0004H13.3273C11.3755 11.0004 10.395 11.9716 10.395 13.8953V23.215C10.395 25.1387 11.3755 26.1099 13.3273 26.1099Z" fill="#484840"/>
</svg>
