<svg width="38" height="32" viewBox="0 0 38 32" fill="none" xmlns="http://www.w3.org/2000/svg">
<path d="M18.8126 24.1282C19.2701 24.1282 19.653 23.764 19.653 23.3157V17.1057H25.6856C26.1339 17.1057 26.5167 16.7228 26.5167 16.2653C26.5167 15.8077 26.1339 15.4341 25.6856 15.4341H19.653V9.21478C19.653 8.76654 19.2701 8.40234 18.8126 8.40234C18.355 8.40234 17.9814 8.76654 17.9814 9.21478V15.4341H11.9395C11.4913 15.4341 11.1084 15.8077 11.1084 16.2653C11.1084 16.7228 11.4913 17.1057 11.9395 17.1057H17.9814V23.3157C17.9814 23.764 18.355 24.1282 18.8126 24.1282Z" fill="#484840"/>
</svg>
