<svg width="38" height="32" viewBox="0 0 38 32" fill="none" xmlns="http://www.w3.org/2000/svg">
<path d="M15.7209 24.3727C15.9637 24.3727 16.1691 24.2793 16.3279 24.1205L23.7332 16.8833C23.9106 16.7059 24.004 16.4911 24.004 16.2576C24.004 16.0148 23.9106 15.7907 23.7332 15.632L16.3372 8.40405C16.1691 8.23596 15.9637 8.14258 15.7209 8.14258C15.2353 8.14258 14.8711 8.51611 14.8711 9.00171C14.8711 9.22583 14.9645 9.44995 15.1139 9.6087L21.9122 16.2576L15.1139 22.9066C14.9645 23.0653 14.8711 23.2801 14.8711 23.5135C14.8711 23.9991 15.2353 24.3727 15.7209 24.3727Z" fill="#A8A89F"/>
</svg>
