<svg width="60" height="14" viewBox="0 0 60 14" fill="none" xmlns="http://www.w3.org/2000/svg">
<path fill-rule="evenodd" clip-rule="evenodd" d="M7.375 14C11.1029 14 14.125 10.9779 14.125 7.25C14.125 3.52208 11.1029 0.5 7.375 0.5C3.64708 0.5 0.625 3.52208 0.625 7.25C0.625 10.9779 3.64708 14 7.375 14Z" fill="#FF7468"/>
<path fill-rule="evenodd" clip-rule="evenodd" d="M29.875 14C33.6029 14 36.625 10.9779 36.625 7.25C36.625 3.52208 33.6029 0.5 29.875 0.5C26.1471 0.5 23.125 3.52208 23.125 7.25C23.125 10.9779 26.1471 14 29.875 14Z" fill="#FFDB5A"/>
<path fill-rule="evenodd" clip-rule="evenodd" d="M52.375 14C56.1029 14 59.125 10.9779 59.125 7.25C59.125 3.52208 56.1029 0.5 52.375 0.5C48.6471 0.5 45.625 3.52208 45.625 7.25C45.625 10.9779 48.6471 14 52.375 14Z" fill="#61C454"/>
</svg>
