<svg width="38" height="32" viewBox="0 0 38 32" fill="none" xmlns="http://www.w3.org/2000/svg">
<path d="M18.5623 25.7827C23.7731 25.7827 28.0874 21.459 28.0874 16.2576C28.0874 11.0468 23.7637 6.73242 18.5529 6.73242C13.3514 6.73242 9.03711 11.0468 9.03711 16.2576C9.03711 21.459 13.3608 25.7827 18.5623 25.7827ZM18.5623 24.1952C14.1545 24.1952 10.634 20.6653 10.634 16.2576C10.634 11.8499 14.1452 8.31995 18.5529 8.31995C22.9606 8.31995 26.4905 11.8499 26.4999 16.2576C26.5092 20.6653 22.97 24.1952 18.5623 24.1952ZM18.5623 11.5043C18.1607 11.5043 17.8619 11.7938 17.8619 12.2047V16.8739L17.9366 18.8443L17.0027 17.7237L15.8915 16.6031C15.7607 16.4817 15.5927 16.3976 15.3965 16.3976C15.0137 16.3976 14.7242 16.6965 14.7242 17.07C14.7242 17.2661 14.7802 17.4342 14.9016 17.5556L18.0206 20.6653C18.2074 20.8521 18.3661 20.9268 18.5623 20.9268C18.7677 20.9268 18.9358 20.8427 19.1132 20.6653L22.2229 17.5556C22.3443 17.4342 22.419 17.2661 22.419 17.07C22.419 16.6965 22.1202 16.3976 21.7373 16.3976C21.5319 16.3976 21.3638 16.4724 21.2424 16.6031L20.1404 17.7237L19.1879 18.8536L19.2626 16.8739V12.2047C19.2626 11.7938 18.9731 11.5043 18.5623 11.5043Z" fill="#484840"/>
</svg>
