<svg width="38" height="32" viewBox="0 0 38 32" fill="none" xmlns="http://www.w3.org/2000/svg">
<path d="M10.985 24.8677H27.1404C29.1014 24.8677 30.0726 23.8965 30.0726 21.9728V10.5707C30.0726 8.64697 29.1014 7.67578 27.1404 7.67578H10.985C9.03326 7.67578 8.05273 8.63763 8.05273 10.5707V21.9728C8.05273 23.9059 9.03326 24.8677 10.985 24.8677ZM11.0037 23.3643C10.0698 23.3643 9.55621 22.8693 9.55621 21.8981V10.6454C9.55621 9.67419 10.0698 9.17926 11.0037 9.17926H15.1686V23.3643H11.0037ZM27.1217 9.17926C28.0462 9.17926 28.5692 9.67419 28.5692 10.6454V21.8981C28.5692 22.8693 28.0462 23.3643 27.1217 23.3643H16.6347V9.17926H27.1217ZM13.3663 12.6438C13.6558 12.6438 13.8986 12.3917 13.8986 12.1208C13.8986 11.8407 13.6558 11.5979 13.3663 11.5979H11.3679C11.0877 11.5979 10.8356 11.8407 10.8356 12.1208C10.8356 12.3917 11.0877 12.6438 11.3679 12.6438H13.3663ZM13.3663 15.0624C13.6558 15.0624 13.8986 14.8103 13.8986 14.5302C13.8986 14.25 13.6558 14.0165 13.3663 14.0165H11.3679C11.0877 14.0165 10.8356 14.25 10.8356 14.5302C10.8356 14.8103 11.0877 15.0624 11.3679 15.0624H13.3663ZM13.3663 17.4717C13.6558 17.4717 13.8986 17.2383 13.8986 16.9581C13.8986 16.678 13.6558 16.4352 13.3663 16.4352H11.3679C11.0877 16.4352 10.8356 16.678 10.8356 16.9581C10.8356 17.2383 11.0877 17.4717 11.3679 17.4717H13.3663Z" fill="#484840"/>
</svg>
