<svg width="38" height="32" viewBox="0 0 38 32" fill="none" xmlns="http://www.w3.org/2000/svg">
<path d="M11.9899 21.7305H13.5867V23.1592C13.5867 25.0829 14.5579 26.0541 16.519 26.0541H25.8947C27.8371 26.0541 28.8176 25.0829 28.8176 23.1592V13.7088C28.8176 11.7851 27.8371 10.8139 25.8947 10.8139H24.2885V9.38513C24.2885 7.46143 23.308 6.49023 21.3656 6.49023H11.9899C10.0288 6.49023 9.05762 7.46143 9.05762 9.38513V18.8356C9.05762 20.7593 10.0288 21.7305 11.9899 21.7305ZM12.0085 20.227C11.0747 20.227 10.5611 19.7227 10.5611 18.7515V9.46918C10.5611 8.49799 11.0747 7.99371 12.0085 7.99371H21.3376C22.2621 7.99371 22.785 8.49799 22.785 9.46918V10.8139H16.519C14.5579 10.8139 13.5867 11.7758 13.5867 13.7088V20.227H12.0085ZM16.5377 24.5507C15.6132 24.5507 15.0902 24.0464 15.0902 23.0752V13.7928C15.0902 12.8217 15.6132 12.3174 16.5377 12.3174H25.8667C26.7912 12.3174 27.3141 12.8217 27.3141 13.7928V23.0752C27.3141 24.0464 26.7912 24.5507 25.8667 24.5507H16.5377Z" fill="#484840"/>
</svg>
