<svg width="36" height="36" viewBox="0 0 36 36" fill="none" xmlns="http://www.w3.org/2000/svg">
<path d="M25.4989 24.6418H22.5657V20.0484C22.5657 18.953 22.5462 17.5429 21.0402 17.5429C19.5125 17.5429 19.2787 18.7363 19.2787 19.9686V24.6415H16.3456V15.1955H19.1614V16.4863H19.2009C19.7742 15.5061 20.8442 14.9184 21.9792 14.9606C24.952 14.9606 25.5002 16.916 25.5002 19.4599L25.4989 24.6418ZM13.036 13.9042C12.1022 13.9042 11.3335 13.136 11.3335 12.2022C11.3335 11.2684 12.1019 10.5 13.0357 10.5C13.9694 10.5 14.7377 11.2682 14.7378 12.2018C14.7378 13.1354 13.9696 13.9042 13.036 13.9042ZM14.5026 24.6418H11.5664V15.1955H14.5026V24.6418Z" fill="#3C4A41"/>
</svg>
