<svg width="13" height="15" viewBox="0 0 13 15" fill="none" xmlns="http://www.w3.org/2000/svg">
<path d="M6.0686 7.06714C6.2334 7.06714 6.35864 7.0144 6.45093 6.91553L9.16675 4.18652C9.2854 4.07446 9.33154 3.94263 9.33154 3.79102C9.33154 3.646 9.27222 3.50098 9.16675 3.39551L6.45093 0.640137C6.35864 0.534668 6.22681 0.481934 6.0686 0.481934C5.77197 0.481934 5.54785 0.719238 5.54785 1.02246C5.54785 1.16089 5.60059 1.29272 5.69287 1.39819L7.45288 3.12524C7.07715 3.05933 6.69482 3.01978 6.3125 3.01978C3.08252 3.01978 0.485352 5.61035 0.485352 8.84033C0.485352 12.0769 3.08252 14.6741 6.3125 14.6741C9.54248 14.6741 12.1331 12.0769 12.1331 8.84033C12.1331 8.52393 11.9089 8.29321 11.5859 8.29321C11.2761 8.29321 11.0718 8.52393 11.0718 8.84033C11.0718 11.4902 8.95581 13.6128 6.3125 13.6128C3.66919 13.6128 1.54663 11.4902 1.54663 8.84033C1.54663 6.19702 3.66919 4.08105 6.3125 4.08105C6.81348 4.08105 7.2749 4.12061 7.67041 4.2063L5.69946 6.16406C5.60059 6.26953 5.54785 6.40137 5.54785 6.53979C5.54785 6.84302 5.77197 7.06714 6.0686 7.06714Z" fill="#3C4A41"/>
</svg>
