<svg width="10" height="13" viewBox="0 0 10 13" fill="none" xmlns="http://www.w3.org/2000/svg">
<path d="M2.2373 12.9302H8.5127C9.36304 12.9302 9.77832 12.5083 9.77832 11.5854V6.74707C9.77832 5.9165 9.43555 5.48804 8.73022 5.41553V3.75439C8.73022 1.26929 7.10205 0.0695801 5.375 0.0695801C3.64795 0.0695801 2.01978 1.26929 2.01978 3.75439V5.44849C1.37378 5.54736 0.97168 5.96924 0.97168 6.74707V11.5854C0.97168 12.5083 1.38696 12.9302 2.2373 12.9302ZM3.08105 3.61597C3.08105 1.96143 4.14233 1.08472 5.375 1.08472C6.60767 1.08472 7.66895 1.96143 7.66895 3.61597V5.40894L3.08105 5.41553V3.61597Z" fill="#A8A89F"/>
</svg>
