<svg width="322" height="32" viewBox="0 0 322 32" fill="none" xmlns="http://www.w3.org/2000/svg">
<path d="M91.9205 18.9529H82.7534V29.3013H79.1191V1.15002H92.2835C94.8408 1.15002 97.0017 1.87085 98.765 3.31142C100.528 4.752 101.41 7.00576 101.41 10.0716C101.41 14.6179 99.512 17.4332 95.716 18.5171L102.137 29.3013H97.9775L91.9205 18.9529ZM82.7534 15.5426H91.5165C93.6974 15.5426 95.2514 15.0606 96.1812 14.0961C97.1099 13.1311 97.574 11.7893 97.574 10.0716C97.574 8.35345 97.1099 7.0116 96.1812 6.04715C95.2514 5.08216 93.6974 4.6002 91.5165 4.6002H82.7534V15.5426Z" fill="#3C4A41"/>
<path d="M127.375 4.56039H111.222V25.8915H127.375V29.3013H107.588V1.15002H127.375V4.56039Z" fill="#3C4A41"/>
<path d="M153.22 4.56039H137.067V25.8915H153.22V29.3013H133.432V1.15002H153.22V4.56039Z" fill="#3C4A41"/>
<path d="M179.468 1.15002H183.103V29.3013H176.036L164.163 4.56039H162.912V29.3013H159.278V1.15002H166.344L178.217 25.8915H179.468V1.15002Z" fill="#3C4A41"/>
<path d="M192.309 20.9751C192.687 22.7458 193.616 24.0935 195.096 25.0192C196.576 25.9439 198.542 26.4067 200.992 26.4067C203.496 26.4067 205.394 25.9699 206.686 25.0983C207.978 24.2262 208.624 23.0234 208.624 21.49C208.624 20.3801 208.287 19.5016 207.614 18.8535C206.942 18.2059 205.999 17.6969 204.788 17.3269C203.576 16.957 201.826 16.5605 199.538 16.1374C197.384 15.7415 195.614 15.2913 194.227 14.7897C192.842 14.2871 191.704 13.5471 190.815 12.5694C189.927 11.5912 189.483 10.2695 189.483 8.60438C189.483 6.09265 190.392 4.11703 192.208 2.67645C194.026 1.23587 196.549 0.516113 199.78 0.516113C203.145 0.516113 205.736 1.27568 207.553 2.79535C209.371 4.31502 210.454 6.43661 210.805 9.15906H207.17C206.874 7.52049 206.147 6.23862 204.989 5.31398C203.831 4.38827 202.096 3.92541 199.78 3.92541C197.788 3.92541 196.179 4.33519 194.955 5.15474C193.73 5.97375 193.117 7.08471 193.117 8.48495C193.117 9.41066 193.407 10.1378 193.985 10.6655C194.564 11.1947 195.325 11.5912 196.267 11.8555C197.209 12.1193 198.461 12.3842 200.022 12.648C202.849 13.1241 205.07 13.613 206.686 14.1156C208.301 14.6178 209.634 15.4373 210.684 16.5732C211.733 17.7102 212.259 19.3227 212.259 21.4109C212.259 24.0277 211.336 26.1031 209.492 27.6355C207.648 29.169 204.693 29.9349 200.628 29.9349C197.263 29.9349 194.463 29.1823 192.229 27.6759C189.995 26.1689 188.675 23.9353 188.271 20.9751H192.309Z" fill="#3C4A41"/>
<path d="M46.7505 13.878C46.7505 11.0228 47.2687 8.59707 48.3045 6.60181C49.3408 4.60602 50.7748 3.09325 52.6051 2.06244C54.4361 1.03111 56.5093 0.516235 58.8238 0.516235H62.1352C63.7774 0.516235 65.353 0.87293 66.861 1.58685C68.3679 2.29971 69.6601 3.34431 70.7371 4.71908C71.8134 6.09277 72.5539 7.7324 72.958 9.63478H69.0814C68.5697 7.91712 67.5734 6.53599 66.0929 5.49191C64.6125 4.44837 62.741 3.92554 60.4795 3.92554C56.8993 3.92554 54.3219 4.87725 52.7469 6.78069C51.1718 8.68306 50.3848 11.1555 50.3848 14.1948V16.2565C50.3848 19.2698 51.1718 21.7152 52.7469 23.5915C54.3219 25.4684 56.8993 26.4069 60.4795 26.4069C62.9292 26.4069 64.9089 25.8251 66.4158 24.6627C67.9239 23.4986 69.3237 20.5591 69.3237 18.2692H73.0791C73.0791 20.5113 72.0633 23.9418 70.9989 25.4355C69.936 26.9292 68.6303 28.0529 67.0828 28.8055C65.5342 29.5593 63.8855 29.9351 62.1352 29.9351H58.8238C56.5093 29.9351 54.4361 29.4202 52.6051 28.3894C50.7748 27.358 49.3408 25.8453 48.3045 23.8495C47.2687 21.8542 46.7505 19.4285 46.7505 16.5733V13.878Z" fill="#3C4A41"/>
<path fill-rule="evenodd" clip-rule="evenodd" d="M73.079 14.8883H61.7148L56.7607 16.4388V18.3671H73.079V14.8883Z" fill="#3C4A41"/>
<path fill-rule="evenodd" clip-rule="evenodd" d="M109.323 16.9646H120.687L125.642 15.4146V13.4857H109.323V16.9646Z" fill="#3C4A41"/>
<path fill-rule="evenodd" clip-rule="evenodd" d="M135.169 16.9646H146.533L151.487 15.4146V13.4857H135.169V16.9646Z" fill="#3C4A41"/>
<path d="M237.988 28.2173C237.638 28.4338 237.275 28.6297 236.898 28.8054C235.283 29.5591 233.564 29.9355 231.738 29.9355H228.284C225.871 29.9355 223.708 29.4201 221.799 28.3893C219.89 27.3579 218.394 25.8452 217.313 23.8494C216.233 21.8541 215.693 19.4284 215.693 16.5732V13.8778C215.693 11.0227 216.233 8.59748 217.313 6.60168C218.394 4.60589 219.89 3.09366 221.799 2.06285C223.708 1.03099 225.871 0.516113 228.284 0.516113H231.738C233.451 0.516113 235.094 0.872807 236.667 1.58673C237.126 1.79533 237.567 2.03206 237.988 2.29693V7.5672C237.44 6.76942 236.732 6.07726 235.866 5.4918C234.322 4.44825 232.37 3.92542 230.011 3.92542C226.278 3.92542 223.589 4.87713 221.947 6.78057C220.304 8.68347 219.483 11.1554 219.483 14.1947V16.2563C219.483 19.2697 220.304 21.715 221.947 23.5919C223.589 25.4683 226.278 26.4067 230.011 26.4067C232.567 26.4067 234.631 25.825 236.203 24.6625C236.912 24.1376 237.507 23.5378 237.988 22.8631V28.2173Z" fill="#3C4A41"/>
<path d="M257.513 0.516113C259.828 0.516113 261.901 1.03789 263.732 2.08143C265.562 3.12657 266.995 4.65313 268.032 6.66167C269.068 8.6702 269.587 11.0758 269.587 13.8778V16.5732C269.587 19.4284 269.068 21.8541 268.032 23.8494C266.995 25.8452 265.562 27.3579 263.732 28.3893C261.901 29.4201 259.828 29.9349 257.513 29.9349H254.201C251.886 29.9349 249.814 29.4201 247.983 28.3893C246.152 27.3579 244.718 25.8452 243.682 23.8494C242.645 21.8541 242.127 19.4284 242.127 16.5732V13.8778C242.127 11.0227 242.645 8.59695 243.682 6.60169C244.718 4.60589 246.152 3.09313 247.983 2.06232C249.814 1.03099 251.886 0.516113 254.201 0.516113H257.513ZM265.953 14.1947C265.953 11.1554 265.165 8.68294 263.59 6.78056C262.015 4.87713 259.437 3.92541 255.857 3.92541C252.277 3.92541 249.698 4.87713 248.124 6.78056C246.549 8.68294 245.762 11.1554 245.762 14.1947V16.2563C245.762 19.2697 246.549 21.6949 248.124 23.5319C249.698 25.369 252.277 26.2878 255.857 26.2878C259.437 26.2878 262.015 25.369 263.59 23.5319C265.165 21.6949 265.953 19.2697 265.953 16.2563V14.1947Z" fill="#3C4A41"/>
<path d="M288.203 1.15002C290.76 1.15002 292.92 1.87085 294.684 3.31142C296.447 4.752 297.328 7.00576 297.328 10.0716C297.328 13.2702 296.467 15.5495 294.744 16.9104C293.021 18.2719 290.841 18.9529 288.203 18.9529H278.672V29.3013H275.038V1.15002H288.203ZM287.435 15.5426C289.616 15.5426 291.17 15.0606 292.1 14.0961C293.028 13.1311 293.492 11.7893 293.492 10.0716C293.492 8.35345 293.028 7.0116 292.1 6.04715C291.17 5.08216 289.616 4.6002 287.435 4.6002H278.672V15.5426H287.435Z" fill="#3C4A41"/>
<path d="M321.958 4.56039H305.809V25.8915H321.958V29.3013H302.174V1.15002H321.958V4.56039Z" fill="#3C4A41"/>
<path fill-rule="evenodd" clip-rule="evenodd" d="M303.911 16.9646H315.275L320.229 15.4146V13.4857H303.911V16.9646Z" fill="#3C4A41"/>
</svg>
