<svg width="250" height="26" viewBox="0 0 250 26" fill="none" xmlns="http://www.w3.org/2000/svg">
<path d="M71.3667 15.0521H64.2494V23.2573H61.4277V0.936279H71.6485C73.634 0.936279 75.3117 1.50781 76.6807 2.65004C78.0494 3.79227 78.7343 5.57926 78.7343 8.01018C78.7343 11.6149 77.2607 13.8472 74.3135 14.7066L79.2987 23.2573H76.0693L71.3667 15.0521ZM64.2494 12.348H71.053C72.7462 12.348 73.9528 11.9659 74.6746 11.2012C75.3957 10.436 75.756 9.3721 75.756 8.01018C75.756 6.64784 75.3957 5.58389 74.6746 4.81918C73.9528 4.05405 72.7462 3.6719 71.053 3.6719H64.2494V12.348Z" fill="#3C4A41"/>
<path d="M98.8934 3.64034H86.352V20.5536H98.8934V23.2573H83.5308V0.936279H98.8934V3.64034Z" fill="#3C4A41"/>
<path d="M118.959 3.64034H106.418V20.5536H118.959V23.2573H103.596V0.936279H118.959V3.64034Z" fill="#3C4A41"/>
<path d="M139.338 0.936279H142.16V23.2573H136.673L127.456 3.64034H126.484V23.2573H123.663V0.936279H129.149L138.367 20.5536H139.338V0.936279Z" fill="#3C4A41"/>
<path d="M149.308 16.6554C149.601 18.0594 150.322 19.128 151.472 19.862C152.621 20.5951 154.147 20.9621 156.049 20.9621C157.993 20.9621 159.467 20.6158 160.47 19.9247C161.473 19.2332 161.975 18.2795 161.975 17.0637C161.975 16.1836 161.714 15.4871 161.191 14.9732C160.669 14.4598 159.937 14.0562 158.997 13.7628C158.056 13.4695 156.697 13.1551 154.92 12.8197C153.248 12.5057 151.874 12.1488 150.797 11.7511C149.722 11.3525 148.838 10.7658 148.148 9.9906C147.459 9.21495 147.114 8.16699 147.114 6.84674C147.114 4.8552 147.82 3.28874 149.23 2.14651C150.641 1.00429 152.6 0.433594 155.109 0.433594C157.721 0.433594 159.733 1.03585 161.144 2.24079C162.555 3.44573 163.396 5.12792 163.668 7.28654H160.846C160.616 5.98733 160.052 4.97094 159.153 4.23779C158.254 3.50381 156.906 3.13681 155.109 3.13681C153.562 3.13681 152.313 3.46172 151.362 4.11153C150.411 4.76093 149.935 5.6418 149.935 6.75204C149.935 7.48603 150.16 8.06262 150.609 8.48096C151.059 8.90056 151.65 9.21495 152.381 9.42454C153.112 9.63371 154.085 9.84372 155.297 10.0529C157.491 10.4304 159.216 10.818 160.47 11.2166C161.724 11.6147 162.759 12.2645 163.574 13.1652C164.389 14.0667 164.797 15.3453 164.797 17.0009C164.797 19.0758 164.08 20.7214 162.649 21.9364C161.217 23.1523 158.923 23.7596 155.767 23.7596C153.154 23.7596 150.98 23.1628 149.246 21.9684C147.511 20.7736 146.487 19.0026 146.173 16.6554H149.308Z" fill="#3C4A41"/>
<path d="M36.2969 11.0283C36.2969 8.76444 36.6992 6.84109 37.5034 5.25906C38.308 3.6766 39.4213 2.47714 40.8424 1.65982C42.264 0.842077 43.8736 0.433838 45.6706 0.433838H48.2415C49.5165 0.433838 50.7398 0.716659 51.9106 1.28272C53.0806 1.84794 54.0839 2.67621 54.92 3.76625C55.7557 4.85545 56.3306 6.1555 56.6443 7.66388H53.6345C53.2372 6.30196 52.4637 5.20687 51.3143 4.37903C50.1649 3.55161 48.7119 3.13705 46.9561 3.13705C44.1764 3.13705 42.1753 3.89167 40.9524 5.40089C39.7295 6.90927 39.1185 8.86966 39.1185 11.2795V12.9142C39.1185 15.3034 39.7295 17.2424 40.9524 18.7301C42.1753 20.2183 44.1764 20.9624 46.9561 20.9624C48.858 20.9624 50.395 20.5011 51.565 19.5794C52.7358 18.6565 53.8227 16.3257 53.8227 14.5101H56.7384C56.7384 16.2878 55.9497 19.0079 55.1233 20.1922C54.298 21.3765 53.2843 22.2675 52.0828 22.8643C50.8805 23.4619 49.6005 23.7599 48.2415 23.7599H45.6706C43.8736 23.7599 42.264 23.3516 40.8424 22.5343C39.4213 21.7166 38.308 20.5171 37.5034 18.9347C36.6992 17.3526 36.2969 15.4293 36.2969 13.1654V11.0283Z" fill="#3C4A41"/>
<path fill-rule="evenodd" clip-rule="evenodd" d="M56.7383 11.8293H47.9152L44.0688 13.0587V14.5877H56.7383V11.8293Z" fill="#3C4A41"/>
<path fill-rule="evenodd" clip-rule="evenodd" d="M84.8784 13.4756H93.7016L97.5479 12.2467V10.7173H84.8784V13.4756Z" fill="#3C4A41"/>
<path fill-rule="evenodd" clip-rule="evenodd" d="M104.945 13.4756H113.768L117.614 12.2467V10.7173H104.945V13.4756Z" fill="#3C4A41"/>
<path d="M184.773 22.3977C184.502 22.5694 184.22 22.7247 183.927 22.864C182.673 23.4617 181.338 23.76 179.921 23.76H177.239C175.366 23.76 173.687 23.3514 172.204 22.5341C170.722 21.7163 169.561 20.5169 168.722 18.9344C167.883 17.3524 167.463 15.429 167.463 13.1652V11.028C167.463 8.7642 167.883 6.84127 168.722 5.25881C169.561 3.67636 170.722 2.47732 172.204 1.66C173.687 0.841834 175.366 0.433594 177.239 0.433594H179.921C181.251 0.433594 182.527 0.716414 183.748 1.28248C184.104 1.44788 184.446 1.63558 184.773 1.84559V6.02437C184.347 5.39181 183.798 4.843 183.126 4.37879C181.927 3.55137 180.412 3.13681 178.58 3.13681C175.681 3.13681 173.594 3.89142 172.319 5.40065C171.043 6.90945 170.406 8.86942 170.406 11.2793V12.9139C170.406 15.3032 171.043 17.2421 172.319 18.7303C173.594 20.2181 175.681 20.9621 178.58 20.9621C180.564 20.9621 182.167 20.5009 183.387 19.5792C183.938 19.1629 184.4 18.6874 184.773 18.1524V22.3977Z" fill="#3C4A41"/>
<path d="M199.932 0.433594C201.729 0.433594 203.339 0.847304 204.76 1.67473C206.181 2.50341 207.294 3.71382 208.099 5.30637C208.904 6.89892 209.306 8.80629 209.306 11.028V13.1652C209.306 15.429 208.904 17.3524 208.099 18.9344C207.294 20.5169 206.181 21.7163 204.76 22.5341C203.339 23.3514 201.729 23.7596 199.932 23.7596H197.361C195.563 23.7596 193.954 23.3514 192.533 22.5341C191.111 21.7163 189.998 20.5169 189.193 18.9344C188.389 17.3524 187.986 15.429 187.986 13.1652V11.028C187.986 8.7642 188.389 6.84085 189.193 5.25881C189.998 3.67636 191.111 2.47689 192.533 1.65957C193.954 0.841833 195.563 0.433594 197.361 0.433594H199.932ZM206.485 11.2793C206.485 8.86942 205.873 6.90903 204.65 5.40064C203.427 3.89142 201.426 3.13681 198.646 3.13681C195.867 3.13681 193.865 3.89142 192.643 5.40064C191.419 6.90903 190.808 8.86942 190.808 11.2793V12.9139C190.808 15.3032 191.419 17.2261 192.643 18.6827C193.865 20.1393 195.867 20.8679 198.646 20.8679C201.426 20.8679 203.427 20.1393 204.65 18.6827C205.873 17.2261 206.485 15.3032 206.485 12.9139V11.2793Z" fill="#3C4A41"/>
<path d="M223.76 0.936279C225.745 0.936279 227.423 1.50781 228.792 2.65004C230.161 3.79227 230.845 5.57926 230.845 8.01018C230.845 10.5463 230.176 12.3535 228.839 13.4326C227.501 14.5121 225.808 15.0521 223.76 15.0521H216.36V23.2573H213.539V0.936279H223.76ZM223.164 12.348C224.857 12.348 226.064 11.9659 226.786 11.2012C227.507 10.436 227.867 9.3721 227.867 8.01018C227.867 6.64784 227.507 5.58389 226.786 4.81918C226.064 4.05405 224.857 3.6719 223.164 3.6719H216.36V12.348H223.164Z" fill="#3C4A41"/>
<path d="M249.967 3.64034H237.429V20.5536H249.967V23.2573H234.607V0.936279H249.967V3.64034Z" fill="#3C4A41"/>
<path fill-rule="evenodd" clip-rule="evenodd" d="M235.956 13.4756H244.779L248.625 12.2467V10.7173H235.956V13.4756Z" fill="#3C4A41"/>
</svg>
