<svg width="101" height="102" viewBox="0 0 101 102" fill="none" xmlns="http://www.w3.org/2000/svg">
<g clip-path="url(#clip0_11_8374)">
<path d="M51.2414 54.4812C50.6926 55.3348 49.1072 51.8897 47.8267 53.7596C47.593 54.095 46.6479 57.0523 48.6601 57.9059C50.9772 58.9019 52.5117 56.4528 53.4263 51.3308C53.4772 51.0767 53.4467 54.1153 53.5788 54.0238C53.7109 53.9324 53.843 53.9222 53.9853 53.9832C54.1276 54.0441 54.2394 54.1661 54.3105 54.3389C54.3918 54.5116 54.4121 54.7555 54.3918 55.0502C54.3308 55.3755 54.2292 55.7718 54.087 56.2291C53.9447 56.6966 52.3186 59.6133 49.2292 59.5829C46.0787 59.5625 44.4731 56.1681 44.3206 55.6397C44.1682 55.1113 44.0869 54.6031 44.097 54.1051C44.1072 53.6072 44.1784 53.1499 44.3206 52.7332C44.4629 52.3166 44.6255 52.0319 44.8085 51.849C44.9914 51.6763 45.8755 50.101 49.1276 50.9446C52.2577 51.7779 51.465 54.1458 51.2414 54.4812Z" fill="#3C4A41"/>
<path d="M58.9624 45.2089C58.9624 45.2089 56.371 56.0321 56.31 56.4691C56.1779 57.5159 56.1779 58.0647 57.0214 58.3492C58.2307 58.7557 59.308 56.7943 59.308 56.7943C60.7613 53.7658 60.0906 53.5219 62.4991 53.6134C62.8344 53.6235 61.7877 54.8939 61.7572 55.1886C61.7267 55.341 61.6454 55.6561 61.493 56.1439C61.3405 56.6317 61.117 57.1297 60.8222 57.648C60.5275 58.1561 60.1616 58.6135 59.745 59.0199C59.3182 59.4163 58.8608 59.6196 58.3629 59.6196C57.3365 59.6196 56.4828 59.335 55.8019 58.7761C55.1209 58.2171 54.562 57.5159 54.1352 56.6724C53.7084 55.8288 53.2916 54.8837 53.251 53.9691C53.119 50.6662 55.0702 43.5523 55.2734 43.3288C55.4766 43.1052 55.7307 42.9934 56.056 42.9934C56.3507 42.9934 56.7368 43.1865 57.2552 43.3491C59.4605 44.0402 58.9624 45.2089 58.9624 45.2089ZM82.6212 54.7821C82.8143 54.3349 83.0988 54.1927 83.4647 54.3655C83.8305 54.5382 83.9728 54.904 83.8916 55.4528C83.8407 55.8288 83.7492 56.2252 83.5968 56.6317C83.4444 57.0484 82.7025 59.4265 80.4871 59.4265C78.4748 59.4265 77.2146 56.8045 76.9707 56.3471C76.737 55.9203 76.5439 55.4528 76.3813 54.9346C76.2288 54.4264 76.1272 53.9589 76.0968 53.5321C76.0561 53.1053 76.0765 52.7597 76.1475 52.4853C76.2085 52.2109 76.3509 52.089 76.5744 52.1093C76.7776 52.1602 77.0114 52.2312 77.2757 52.3126C77.5398 52.404 77.7837 52.4955 78.0175 52.6073C78.2614 52.7191 78.4748 52.8512 78.6781 53.0037C78.8813 53.156 79.0338 53.3288 79.1456 53.5321C79.2573 53.7354 79.3386 54.0301 79.3996 54.4162C79.4606 54.8024 79.5216 55.1988 79.5927 55.5951C79.6639 55.9914 79.7248 56.3573 79.796 56.6825C79.8671 57.0077 79.9687 57.2109 80.1212 57.2821C80.233 57.333 80.3854 57.3024 80.5988 57.1906C80.8122 57.0789 81.0358 56.9061 81.2695 56.6825C81.5033 56.4589 81.7472 56.1845 81.9911 55.8594C82.2248 55.5443 82.4383 55.1886 82.6212 54.7821Z" fill="#3C4A41"/>
<path d="M51.5251 47.8516C52.9885 47.7399 54.4112 47.618 55.8036 47.4553C57.1959 47.3029 56.1592 47.374 57.2772 47.2318C58.395 47.0895 59.33 46.9676 60.0617 46.8558C60.8036 46.7542 61.2609 46.6932 61.4337 46.6932C61.7588 46.683 62.1451 46.7338 62.5617 46.8558C62.9886 46.9777 63.3849 47.1199 63.7507 47.3029C64.1166 47.4756 64.4215 47.6687 64.6552 47.872C64.8889 48.0753 64.9601 48.2684 64.8788 48.4513C64.8179 48.5529 64.4622 48.6241 63.7812 48.6647C63.1105 48.7054 62.2162 48.7358 61.0983 48.7663C59.9804 48.7968 58.6897 48.8273 57.2263 48.8578C55.7629 48.8883 59.6857 48.5123 54.8685 48.7561C50.0413 49.0102 51.5251 47.8516 51.5251 47.8516ZM38.4253 51.1952C38.8116 51.1952 39.1774 51.2867 39.5229 51.4798C39.8685 51.6729 40.1022 51.9371 40.2039 52.2623C40.9457 52.4249 41.5148 52.7704 41.901 53.2888C42.2872 53.807 42.5108 54.4066 42.5718 55.0672C43.2729 55.1485 44.6145 54.3761 44.6145 52.8517C44.6145 52.5265 44.9905 53.8375 44.8583 54.7725C44.8278 55.0163 44.1571 56.866 42.2059 57.0794C41.8604 57.12 41.6977 57.4554 41.5453 57.8314C41.4335 58.0957 40.4884 59.5591 38.1509 59.5591C36.718 59.5591 35.7018 58.2583 35.3258 57.7908C34.9498 57.3233 34.7464 56.805 34.7363 56.2258C34.6957 55.677 34.7668 55.1078 34.9294 54.5083C35.092 53.9188 35.3359 53.3701 35.6509 52.8822C35.966 52.3843 36.3623 51.9879 36.8298 51.6627C37.277 51.3578 37.8156 51.1952 38.4253 51.1952ZM37.5209 58.1261C37.7749 58.4514 38.2018 58.4514 38.7912 58.1261C39.3807 57.801 39.9193 57.303 40.4071 56.6119C39.9092 56.2867 39.462 55.8599 39.0453 55.3111C38.6287 54.7725 38.3034 54.1322 38.0697 53.4107C37.5412 54.3355 37.2058 55.2501 37.0738 56.1648C36.9517 57.0693 37.0941 57.7298 37.5209 58.1261ZM63.954 51.1952C64.3402 51.1952 64.706 51.2867 65.0516 51.4798C65.3971 51.6729 65.6309 51.9371 65.7325 52.2623C66.4744 52.4249 67.0333 52.7704 67.4296 53.2888C67.8158 53.807 68.0394 54.4066 68.1003 55.0672C68.8016 55.1485 70.1431 54.3761 70.1431 52.8517C70.1431 52.5265 70.5191 53.8375 70.387 54.7725C70.3565 55.0163 69.6858 56.866 67.7345 57.0794C67.389 57.12 67.2264 57.4554 67.0739 57.8314C66.9622 58.0957 66.0171 59.5591 63.6796 59.5591C62.2467 59.5591 61.2304 58.2583 60.8544 57.7908C60.4784 57.3233 60.2751 56.805 60.2649 56.2258C60.2345 55.677 60.2954 55.1078 60.458 54.5083C60.6206 53.9188 60.8646 53.3701 61.1796 52.8822C61.4947 52.3843 61.891 51.9879 62.3585 51.6627C62.8158 51.3578 63.3443 51.1952 63.954 51.1952ZM63.0495 58.1261C63.3036 58.4514 63.7304 58.4514 64.3198 58.1261C64.9093 57.801 65.448 57.303 65.9357 56.6119C65.4377 56.2867 64.9804 55.8599 64.5739 55.3111C64.1573 54.7725 63.8321 54.1322 63.5983 53.4107C63.0699 54.3355 62.7345 55.2501 62.6024 56.1648C62.4804 57.0693 62.6227 57.7298 63.0495 58.1261Z" fill="#3C4A41"/>
<path d="M77.3149 54.4078C77.0913 54.2553 76.075 51.9585 76.1462 52.4972C76.2681 53.3814 74.0934 58.3 72.447 57.4566C70.7396 56.5826 71.39 53.8387 71.4815 53.6964C71.9185 52.9952 74.8251 49.489 76.0243 42.5073C76.1462 41.8162 76.4206 39.1333 73.636 38.6759C70.6583 38.1881 69.9775 39.6922 69.6828 40.3426C68.514 42.9849 68.9104 52.3752 69.9165 56.3082C70.1401 57.1923 71.319 59.4383 72.8942 59.4383C75.4246 59.4383 76.7153 56.8672 76.9084 56.4504C77.1015 56.0338 77.2845 55.6273 77.4368 55.2309C77.5893 54.8346 77.5385 54.5602 77.3149 54.4078ZM71.8677 45.8305C71.9084 45.0987 71.949 44.3772 71.9897 43.6658C72.0303 42.9646 72.1116 42.3345 72.2234 41.7755C72.3352 41.2166 72.4775 40.7796 72.6705 40.4544C72.8535 40.1292 73.0873 39.9768 73.3413 39.9869C73.7478 40.0174 74.0222 40.302 74.1645 40.8203C74.3068 41.3386 74.3474 41.989 74.3068 42.7613C74.2661 43.5337 74.134 44.3874 73.9307 45.3223C73.7275 46.2573 73.514 47.1516 73.2905 48.0154C72.9551 49.2959 72.1929 50.8711 72.0303 51.1659C71.9185 48.5439 71.8271 47.2228 71.8677 45.8305ZM93.4227 54.4484C93.3211 54.4179 93.2094 54.4382 93.1077 54.5094C93.0061 54.5704 92.9044 54.6517 92.8232 54.7533C92.63 55.109 92.3862 55.3224 92.0711 55.4139C91.7561 55.5053 91.3598 55.485 90.8719 55.3529C90.8719 55.0582 90.811 54.7533 90.7094 54.4484C90.6076 54.1435 90.4451 53.8894 90.2113 53.6557C89.9776 53.3814 89.6524 53.1781 89.2255 53.0561C88.8089 52.9342 88.4532 52.8732 88.1788 52.8732C87.8943 52.9037 87.6605 52.9849 87.4775 53.1374C87.2946 53.2899 87.1727 53.4728 87.1219 53.6964C87.0711 53.92 87.0914 54.174 87.1727 54.4484C87.254 54.7228 87.4166 54.9972 87.6503 55.2716C87.63 55.4952 87.5894 55.7696 87.5284 56.0947C87.4674 56.42 87.3861 56.7248 87.2743 56.9992C87.1625 57.2736 87.0305 57.4973 86.8882 57.6699C86.7458 57.8427 86.5629 57.8733 86.3597 57.7411C86.1463 57.6192 85.9938 57.3955 85.882 57.0805C85.7703 56.7655 85.689 56.4403 85.628 56.0846C85.5569 55.6883 85.5263 55.2614 85.5162 54.8041C85.9837 54.1334 86.4511 53.3508 86.9085 52.4769C87.3658 51.6028 87.7825 50.678 88.1585 49.7228C88.5345 48.7573 88.8597 47.7919 89.1443 46.8366C89.4289 45.8711 89.6422 44.9666 89.7947 44.113C89.9471 43.2593 89.9979 42.4971 89.9572 41.806C89.9166 41.115 89.7642 40.5764 89.4898 40.1698C89.2561 39.8243 88.8902 39.5093 88.4126 39.2552C87.9247 38.991 87.4268 38.7877 86.9085 38.6556C86.3902 38.5235 85.9125 38.432 85.4654 38.4117C85.0183 38.3914 84.6828 38.4219 84.4796 38.5235C83.8495 38.7979 83.3312 39.3772 82.945 40.2715C82.5589 41.1556 82.2845 42.2024 82.1015 43.3914C81.9288 44.5805 81.8271 45.8508 81.817 47.2025C81.7967 48.554 81.8475 49.8345 81.9491 51.0337C82.0507 52.2329 82.2032 53.2899 82.3759 54.1841C82.5589 55.0886 82.7519 55.6984 82.9755 56.0237C83.2601 56.4504 85.13 59.4383 87.7316 59.4383C90.1606 59.4383 90.9126 56.5114 90.3333 56.42C92.4878 56.735 93.5244 54.4789 93.4227 54.4484ZM85.191 45.9626C85.2316 45.2309 85.2723 44.5093 85.3231 43.7979C85.374 43.0967 85.4552 42.4666 85.5772 41.9077C85.6991 41.3487 85.8617 40.9117 86.0751 40.5865C86.2886 40.2613 86.5324 40.1089 86.8271 40.119C87.2845 40.1495 87.5894 40.4341 87.7519 40.9524C87.9044 41.4707 87.9553 42.1211 87.9044 42.8934C87.8537 43.6658 87.7113 44.5195 87.4878 45.4544C87.254 46.3792 87.0202 47.2837 86.7764 48.1476C86.5324 49.0114 86.2581 49.7838 85.9634 50.4646C85.6687 51.1455 85.4247 51.6435 85.2418 51.9281C85.1503 49.7025 85.13 47.7106 85.191 45.9626ZM89.0833 54.6415C89.002 54.5704 88.9207 54.4992 88.8495 54.4281C88.7682 54.3569 88.7073 54.2858 88.6564 54.2248C88.6057 54.1638 88.565 54.1029 88.5548 54.0521C88.5345 54.0013 88.5447 53.9606 88.5751 53.9301C88.626 53.8793 88.687 53.8793 88.7581 53.9098C88.8292 53.9403 88.9105 53.9911 89.002 54.0724C89.0833 54.1435 89.1748 54.2451 89.2561 54.3569C89.3374 54.4688 89.4187 54.5805 89.4999 54.6822C89.5812 54.7838 89.6422 54.8854 89.6931 54.987C89.7439 55.0785 89.7743 55.1496 89.7947 55.2005C89.5102 54.9972 89.2764 54.8142 89.0833 54.6415Z" fill="#3C4A41"/>
<path d="M79.2275 48.1442C79.2275 48.9775 78.5771 49.6482 77.7743 49.6482C76.9714 49.6482 76.321 48.9775 76.321 48.1442C76.321 47.3109 76.9714 46.6401 77.7743 46.6401C78.5771 46.6401 79.2275 47.3109 79.2275 48.1442ZM10.5888 50.2377C10.5888 50.2377 10.5583 50.2986 10.5075 50.4206C10.4465 50.5426 10.3855 50.7052 10.3042 50.9287C10.1315 51.3658 9.91806 52.006 9.81643 52.7682C9.76562 53.1543 9.74529 53.5711 9.76562 54.0182C9.77579 54.2418 9.79611 54.4755 9.8266 54.7092C9.84692 54.8312 9.85708 54.9329 9.87741 54.9836C9.89774 55.0649 9.92822 55.1564 9.95871 55.2479C10.2128 55.9694 10.975 56.8435 12.0319 57.6259C13.099 58.3984 14.41 59.1198 15.8632 59.8211C17.3266 60.502 18.973 61.1728 20.7921 61.437C21.6966 61.5589 22.6316 61.5894 23.5665 61.4573C24.034 61.3963 24.4913 61.2947 24.9487 61.1525C25.406 61.0203 25.843 60.8475 26.2698 60.6341C27.1235 60.2174 27.8958 59.6382 28.5259 58.9471C29.156 58.256 29.654 57.4532 30.0198 56.6097C30.2027 56.1828 30.3552 55.756 30.4873 55.3089C30.6195 54.8617 30.7109 54.4348 30.8328 53.9268L30.9243 53.5609L30.9955 53.2153C31.0462 52.9817 31.1072 52.758 31.1479 52.5243C31.1886 52.2905 31.2496 52.0569 31.2902 51.8231C31.3308 51.5893 31.3715 51.3556 31.4121 51.132C31.7373 49.2925 31.7983 47.4735 31.4934 45.949C31.341 45.1868 31.1072 44.5059 30.7922 43.9064C30.6296 43.6116 30.4467 43.3372 30.2536 43.073C30.0504 42.8189 29.8267 42.575 29.5828 42.3616C28.6072 41.4775 27.2963 40.888 25.9852 40.512C24.6641 40.136 23.3532 39.9327 22.1641 39.821C20.9751 39.699 19.9181 39.6583 19.034 39.6279C18.1498 39.6075 17.4486 39.5974 16.9709 39.6075C16.4933 39.6075 16.2392 39.6177 16.2392 39.6177H16.0563L15.9852 39.3535L16.1478 39.2722C16.1478 39.2722 16.3815 39.1502 16.8389 38.9571C17.2962 38.7742 17.9669 38.51 18.8511 38.2457C19.7352 37.9815 20.8226 37.7173 22.1133 37.5445C23.4039 37.3718 24.8978 37.2803 26.5747 37.4835C27.408 37.5852 28.2921 37.7681 29.1966 38.0831C29.4203 38.1543 29.654 38.2559 29.8776 38.3474C30.1011 38.449 30.3349 38.5506 30.5585 38.6726C31.0158 38.9063 31.4629 39.201 31.9 39.5262C32.3369 39.8616 32.7434 40.2478 33.1195 40.6746C33.4853 41.1116 33.8207 41.5893 34.1053 42.0974C34.3797 42.6055 34.6133 43.1442 34.776 43.6929C34.8674 43.9673 34.9284 44.2417 34.9995 44.5263C35.0605 44.8007 35.1011 45.0852 35.1418 45.3596C35.2943 46.4775 35.2638 47.5954 35.1418 48.6727C35.0199 49.7498 34.7963 50.8068 34.5117 51.8332C34.4406 52.0873 34.3593 52.3414 34.2882 52.5954C34.2069 52.8495 34.1256 53.1036 34.0341 53.3475C33.9528 53.6015 33.8512 53.8556 33.7496 54.0995L33.5971 54.4755C33.5463 54.5975 33.4955 54.7092 33.4446 54.8312L33.1195 55.5528C32.9975 55.8068 32.8755 56.0609 32.7434 56.3048C32.4792 56.7926 32.1744 57.2702 31.839 57.7276C31.1682 58.6321 30.3654 59.4248 29.4913 60.0853C28.6174 60.7459 27.6723 61.2642 26.6966 61.6707C26.4527 61.7723 26.2089 61.8638 25.9649 61.9451C25.721 62.0365 25.467 62.1179 25.2231 62.1789C24.7251 62.3211 24.2271 62.4431 23.719 62.5447C22.7129 62.7378 21.7169 62.8699 20.7108 62.941C18.7189 63.0731 16.7169 62.9715 14.8876 62.4939C13.0583 62.0264 11.4018 61.1931 10.0705 60.0955C9.38961 59.5569 8.80016 58.9268 8.30219 58.2459C7.81439 57.5548 7.41804 56.7723 7.2656 55.9187C7.22495 55.7052 7.19446 55.4918 7.1843 55.2784C7.17414 55.0345 7.17414 54.8414 7.20463 54.6788C7.22495 54.506 7.24528 54.3434 7.28593 54.1808C7.31642 54.0182 7.3469 53.8556 7.39772 53.7031C7.56032 53.0934 7.79406 52.5548 8.06845 52.1076C8.60707 51.2133 9.21684 50.695 9.64367 50.4003C9.74529 50.319 9.84692 50.258 9.93838 50.2072C10.0197 50.1564 10.0908 50.1157 10.1518 50.0852C10.2738 50.0242 10.3246 49.9938 10.3246 49.9938L10.4872 49.9125L10.6498 50.0649L10.5888 50.2377Z" fill="#3C4A41"/>
<path d="M22.4812 43.7265C21.7191 47.5984 20.967 51.4704 20.2049 55.3424C19.9609 56.6127 22.6032 55.1493 22.7658 54.2753C23.528 50.4034 24.2801 46.5314 25.0422 42.6594C25.2862 41.3992 22.6439 42.8626 22.4812 43.7265Z" fill="#3C4A41"/>
</g>
<defs>
<clipPath id="clip0_11_8374">
<rect width="86.2534" height="26.9542" fill="white" transform="translate(7.17822 37.4265)"/>
</clipPath>
</defs>
</svg>
