<svg width="102" height="102" viewBox="0 0 102 102" fill="none" xmlns="http://www.w3.org/2000/svg">
<g clip-path="url(#clip0_11_8417)">
<path d="M15.5091 40.5918L5.57959 43.8458V49.51L10.2496 47.9782V53.1307L15.5091 51.4062V40.5918Z" fill="#3C4A41"/>
<path d="M5.57829 49.5022L0.317871 51.2277V61.8262L10.2483 58.5708V53.1229L5.57829 54.6529V49.5022Z" fill="#3C4A41"/>
<path d="M5.57959 49.5059V54.6566L10.2496 53.1267V47.9741L5.57959 49.5059Z" fill="#3C4A41"/>
<path d="M100.762 56.0655C100.762 57.731 99.8673 58.5745 98.0108 58.5745H91.3691C89.472 58.5745 88.6323 57.708 88.6323 55.9854V55.3892H89.4452C89.8115 55.3892 89.9657 55.5118 90.0025 55.9326C90.0829 56.8655 90.3984 57.326 91.5463 57.326H98.0533C99.0969 57.326 99.3951 56.9616 99.3951 56.0259V55.1852C99.3951 54.2504 99.0969 53.8841 98.0533 53.8841H91.4512C89.6233 53.8841 88.6996 53.0012 88.6996 51.3235V50.5374C88.6996 48.8599 89.6214 47.9741 91.4512 47.9741H98.0108C99.8461 47.9741 100.615 48.8009 100.615 50.4286V51.0246H99.8009C99.4087 51.0246 99.2426 50.8917 99.2196 50.4968C99.1642 49.6146 98.7969 49.2215 97.7691 49.2215H91.3967C90.3937 49.2215 90.0688 49.6146 90.0688 50.5632V51.1741C90.0688 52.1235 90.3937 52.5166 91.3967 52.5166H98.0108C99.8673 52.5166 100.762 53.3608 100.762 55.0218V56.0655Z" fill="#3C4A41"/>
<path d="M85.3549 58.5745H84.3787C84.0538 58.5745 83.9312 58.3854 83.9312 58.1131V47.9741H84.9212C85.1787 47.9741 85.3549 48.1513 85.3549 48.4226V58.5745Z" fill="#3C4A41"/>
<path d="M81.9231 58.5191L81.9074 58.5745H80.431C80.0795 58.5745 79.8359 58.4619 79.632 58.2635L75.0645 53.8169C74.9427 53.6997 74.7914 53.7117 74.6714 53.8317L70.2258 58.2072C69.9656 58.4628 69.7653 58.5745 69.3842 58.5745H67.8258L67.8101 58.5191L73.6536 52.9643L68.4485 48.0166L68.4623 47.9741H69.9932C70.3475 47.9741 70.5744 48.0719 70.7803 48.273L74.6585 52.069C74.796 52.2056 74.9519 52.201 75.0922 52.069L79.023 48.2859C79.2427 48.0736 79.4973 47.9741 79.8082 47.9741H81.2578L81.2726 48.0166L76.1071 52.9643L81.9231 58.5191Z" fill="#3C4A41"/>
<path d="M65.8051 58.5745H64.827C64.5022 58.5745 64.3823 58.3854 64.3823 58.1131V47.9741H65.3714C65.6289 47.9741 65.8051 48.1513 65.8051 48.4226V58.5745Z" fill="#3C4A41"/>
<path d="M62.6185 49.2217H57.442C57.3349 49.2217 57.2519 49.29 57.2519 49.4117V58.5745H56.2628C55.9371 58.5745 55.8153 58.3854 55.8153 58.1131V49.2217H50.8953C50.6249 49.2217 50.4478 49.074 50.4478 48.7899V47.9741H62.1709C62.444 47.9741 62.6185 48.1236 62.6185 48.4078V49.2217Z" fill="#3C4A41"/>
<path d="M35.4268 58.5745H33.789C33.3802 58.5745 33.0573 58.4767 32.7851 58.2072L23.8513 49.4117C23.7203 49.2826 23.567 49.3582 23.567 49.5335V58.5743H22.576C22.253 58.5743 22.1304 58.3852 22.1304 58.1129V47.9741H23.7839C24.176 47.9741 24.5138 48.0719 24.7462 48.3007L33.706 57.1386C33.8435 57.2742 33.9903 57.206 33.9903 57.0298V47.9741H34.9942C35.2507 47.9741 35.4269 48.1513 35.4269 48.4226L35.4268 58.5745Z" fill="#3C4A41"/>
<path d="M45.6493 47.9741H43.8602L37.5571 58.5745H38.6552C39.0077 58.5745 39.268 58.4454 39.4146 58.1943L40.3769 56.5537C40.4508 56.4282 40.5116 56.3914 40.6612 56.3914H48.8347C48.9702 56.3914 49.0487 56.4356 49.1189 56.5537L50.0822 58.1685C50.2446 58.4361 50.4753 58.5745 50.8951 58.5745H51.9516L45.6493 47.9741ZM41.1908 55.1455L44.593 49.3988C44.6769 49.2558 44.8246 49.2623 44.904 49.3988L48.3062 55.1455H41.1908Z" fill="#3C4A41"/>
</g>
<defs>
<clipPath id="clip0_11_8417">
<rect width="100.629" height="21.2596" fill="white" transform="translate(0.218262 40.5833)"/>
</clipPath>
</defs>
</svg>
