<svg width="102" height="102" viewBox="0 0 102 102" fill="none" xmlns="http://www.w3.org/2000/svg">
<g clip-path="url(#clip0_11_8445)">
<path fill-rule="evenodd" clip-rule="evenodd" d="M8.79061 52.6152C8.92627 52.4794 8.92627 52.251 8.79061 52.1153C8.79061 52.1153 6.19845 49.516 6.18417 49.516C6.11276 49.4446 6.07706 49.3589 6.07706 49.2661C6.0842 49.1732 6.1199 49.0875 6.18417 49.0161L11.5113 43.6891C11.5827 43.6177 11.6255 43.532 11.6255 43.4249C11.6255 43.2321 11.4684 43.075 11.2756 43.075H6.09134C5.99851 43.075 5.90568 43.1178 5.84141 43.1821L0.471486 48.552C0.292965 48.7376 0.178711 48.9876 0.178711 49.2661C0.178711 49.5446 0.285824 49.7873 0.464345 49.973L5.69859 55.2072C5.83427 55.3429 6.06277 55.3429 6.19845 55.2072L8.79061 52.6152ZM12.361 49.0162C12.2253 49.1518 12.2253 49.3804 12.361 49.516L14.9674 52.1153C15.0317 52.1867 15.0674 52.2724 15.0674 52.3653C15.0674 52.4581 15.0388 52.5509 14.9674 52.6152L9.64035 57.9422C9.56894 58.0065 9.52611 58.0994 9.52611 58.2064C9.52611 58.3992 9.68318 58.5563 9.87599 58.5563H15.0602C15.1531 58.5563 15.2459 58.5135 15.3102 58.4492L20.6801 53.0793C20.8586 52.8936 20.9729 52.6437 20.9729 52.3653C20.9729 52.0867 20.8586 51.8439 20.6873 51.6583L15.453 46.424C15.3173 46.2884 15.0888 46.2884 14.9532 46.424L12.361 49.0162ZM33.3266 47.0167C32.4482 46.7096 31.0843 46.4454 29.9204 46.4454C27.8138 46.4454 26.4856 47.4452 26.4856 49.109C26.4856 50.58 27.3639 51.1941 29.2491 51.5869C29.3575 51.6094 29.4649 51.6309 29.5702 51.6519C30.4982 51.8373 31.27 51.9916 31.27 52.6008C31.27 53.0864 30.7987 53.3292 29.9061 53.3221C29.1635 53.3078 28.0566 53.1078 26.707 52.6008L26.2357 54.4503C27.5496 54.943 28.9135 55.1787 29.9918 55.1787C32.1126 55.1787 33.5122 54.2647 33.5122 52.4652C33.5122 50.8442 32.3625 50.2944 30.6273 49.923C30.5479 49.9064 30.4707 49.8904 30.3958 49.8749L30.3947 49.8746C29.3471 49.6576 28.7564 49.5353 28.7564 49.009C28.7564 48.4877 29.1991 48.2664 29.9347 48.2664C30.6559 48.2664 31.7056 48.4663 32.8838 48.8233L33.3266 47.0167ZM35.9472 46.6811C36.9398 46.6311 38.0466 46.5811 39.1963 46.5811C41.4242 46.5811 42.8596 47.6094 42.8596 49.5803C42.8596 51.5011 41.4171 52.7151 39.1892 52.7151H38.0252V54.9644H35.9472V46.6811ZM38.0323 48.3163V50.8942H39.3177C40.1746 50.8942 40.7816 50.4158 40.7816 49.5945C40.7816 48.7519 40.1746 48.2949 39.3177 48.2949C38.8892 48.2949 38.4536 48.3021 38.0323 48.3163ZM59.5835 46.6811V51.4726L55.6774 46.6811H53.7565V54.9645H55.8345V50.2159L59.7477 54.9645H61.6543V46.6811H59.5835ZM64.4178 46.6739C65.3321 46.6239 66.3887 46.5739 67.5524 46.5739C70.2945 46.5739 72.1374 48.1307 72.1297 50.7727C72.1297 53.4363 70.2874 55.0715 67.7601 55.0715C66.5099 55.0715 65.3321 55.0216 64.4178 54.9716V46.6739ZM66.5028 53.1649C66.9383 53.1863 67.3956 53.1863 67.8168 53.1863C69.0166 53.1863 69.9804 52.258 69.9874 50.7513C69.9874 49.2803 69.0237 48.4377 67.6452 48.4377C67.2814 48.4377 66.8886 48.4377 66.5028 48.4591V53.1649ZM90.1107 47.0167C89.2321 46.7096 87.8684 46.4454 86.7041 46.4454C84.598 46.4454 83.2698 47.4452 83.2698 49.109C83.2698 50.58 84.1477 51.1941 86.0332 51.5869C86.1416 51.6094 86.2487 51.6309 86.3545 51.6519C87.2821 51.8373 88.0542 51.9916 88.0542 52.6008C88.0542 53.0864 87.5827 53.3292 86.6899 53.3221C85.9474 53.3078 84.8405 53.1078 83.4911 52.6008L83.0195 54.4503C84.3335 54.943 85.6978 55.1787 86.7757 55.1787C88.8967 55.1787 90.2964 54.2647 90.2964 52.4652C90.2964 50.8442 89.1463 50.2944 87.4111 49.923C87.3317 49.9063 87.2537 49.8902 87.1789 49.8746C86.1313 49.6576 85.5404 49.5353 85.5404 49.009C85.5404 48.4877 85.9829 48.2664 86.7189 48.2664C87.4401 48.2664 88.4896 48.4663 89.6681 48.8233L90.1107 47.0167ZM96.1161 52.1581H94.8163V54.9645H92.7386V46.6811H94.8234V50.123H95.2305L97.9797 46.6811H100.508L97.4443 50.4943L100.701 54.9645H98.1513L96.1161 52.1581ZM46.987 49.9373V48.4377H51.2715V46.6739H44.9019V54.9574H51.2715V53.1936H46.987V51.6939H50.5646V49.9373H46.987ZM76.5928 48.4377V49.9373H80.1703V51.6939H76.5928V53.1936H80.8773V54.9574H74.508V46.6739H80.8773V48.4377H76.5928Z" fill="#3C4A41"/>
</g>
<defs>
<clipPath id="clip0_11_8445">
<rect width="100.629" height="15.4814" fill="white" transform="translate(0.178711 43.0867)"/>
</clipPath>
</defs>
</svg>
