<svg width="102" height="102" viewBox="0 0 102 102" fill="none" xmlns="http://www.w3.org/2000/svg">
<g clip-path="url(#clip0_11_8357)">
<path fill-rule="evenodd" clip-rule="evenodd" d="M9.04842 52.6152C9.18408 52.4794 9.18408 52.251 9.04842 52.1153C9.04842 52.1153 6.45626 49.516 6.44198 49.516C6.37057 49.4446 6.33487 49.3589 6.33487 49.2661C6.34201 49.1732 6.37771 49.0875 6.44198 49.0161L11.7691 43.6891C11.8405 43.6177 11.8833 43.532 11.8833 43.4249C11.8833 43.2321 11.7262 43.075 11.5334 43.075H6.34915C6.25632 43.075 6.16349 43.1178 6.09922 43.1821L0.729299 48.552C0.550777 48.7376 0.436523 48.9876 0.436523 49.2661C0.436523 49.5446 0.543636 49.7873 0.722157 49.973L5.95641 55.2072C6.09208 55.3429 6.32059 55.3429 6.45626 55.2072L9.04842 52.6152ZM12.6188 49.0162C12.4832 49.1518 12.4832 49.3804 12.6188 49.516L15.2252 52.1153C15.2895 52.1867 15.3252 52.2724 15.3252 52.3653C15.3252 52.4581 15.2966 52.5509 15.2252 52.6152L9.89816 57.9422C9.82675 58.0065 9.78392 58.0994 9.78392 58.2064C9.78392 58.3992 9.94099 58.5563 10.1338 58.5563H15.3181C15.4109 58.5563 15.5037 58.5135 15.568 58.4492L20.9379 53.0793C21.1164 52.8936 21.2307 52.6437 21.2307 52.3653C21.2307 52.0867 21.1164 51.8439 20.9451 51.6583L15.7108 46.424C15.5751 46.2884 15.3466 46.2884 15.211 46.424L12.6188 49.0162ZM33.5844 47.0167C32.706 46.7096 31.3421 46.4454 30.1782 46.4454C28.0716 46.4454 26.7434 47.4452 26.7434 49.109C26.7434 50.58 27.6217 51.1941 29.5069 51.5869C29.6154 51.6094 29.7227 51.6309 29.828 51.6519C30.756 51.8373 31.5278 51.9916 31.5278 52.6008C31.5278 53.0864 31.0565 53.3292 30.1639 53.3221C29.4213 53.3078 28.3144 53.1078 26.9648 52.6008L26.4935 54.4503C27.8074 54.943 29.1713 55.1787 30.2496 55.1787C32.3704 55.1787 33.7701 54.2647 33.7701 52.4652C33.7701 50.8442 32.6204 50.2944 30.8852 49.923C30.8057 49.9064 30.7285 49.8904 30.6536 49.8749L30.6525 49.8746C29.6049 49.6576 29.0142 49.5353 29.0142 49.009C29.0142 48.4877 29.4569 48.2664 30.1925 48.2664C30.9137 48.2664 31.9634 48.4663 33.1416 48.8233L33.5844 47.0167ZM36.205 46.6811C37.1976 46.6311 38.3044 46.5811 39.4541 46.5811C41.6821 46.5811 43.1174 47.6094 43.1174 49.5803C43.1174 51.5011 41.6749 52.7151 39.447 52.7151H38.283V54.9644H36.205V46.6811ZM38.2902 48.3163V50.8942H39.5755C40.4324 50.8942 41.0394 50.4158 41.0394 49.5945C41.0394 48.7519 40.4324 48.2949 39.5755 48.2949C39.1471 48.2949 38.7114 48.3021 38.2902 48.3163ZM59.8413 46.6811V51.4726L55.9352 46.6811H54.0143V54.9645H56.0923V50.2159L60.0055 54.9645H61.9122V46.6811H59.8413ZM64.6756 46.6739C65.5899 46.6239 66.6465 46.5739 67.8102 46.5739C70.5523 46.5739 72.3952 48.1307 72.3875 50.7727C72.3875 53.4363 70.5452 55.0715 68.0179 55.0715C66.7678 55.0715 65.5899 55.0216 64.6756 54.9716V46.6739ZM66.7607 53.1649C67.1961 53.1863 67.6534 53.1863 68.0746 53.1863C69.2745 53.1863 70.2382 52.258 70.2453 50.7513C70.2453 49.2803 69.2815 48.4377 67.9031 48.4377C67.5392 48.4377 67.1464 48.4377 66.7607 48.4591V53.1649ZM90.3685 47.0167C89.4899 46.7096 88.1262 46.4454 86.9619 46.4454C84.8558 46.4454 83.5276 47.4452 83.5276 49.109C83.5276 50.58 84.4055 51.1941 86.2911 51.5869C86.3994 51.6094 86.5065 51.6309 86.6123 51.6519C87.5399 51.8373 88.312 51.9916 88.312 52.6008C88.312 53.0864 87.8405 53.3292 86.9477 53.3221C86.2053 53.3078 85.0983 53.1078 83.7489 52.6008L83.2773 54.4503C84.5913 54.943 85.9556 55.1787 87.0335 55.1787C89.1545 55.1787 90.5542 54.2647 90.5542 52.4652C90.5542 50.8442 89.4041 50.2944 87.6689 49.923C87.5896 49.9063 87.5115 49.8902 87.4367 49.8746C86.3891 49.6576 85.7982 49.5353 85.7982 49.009C85.7982 48.4877 86.2407 48.2664 86.9768 48.2664C87.6979 48.2664 88.7474 48.4663 89.926 48.8233L90.3685 47.0167ZM96.3739 52.1581H95.0742V54.9645H92.9964V46.6811H95.0813V50.123H95.4883L98.2375 46.6811H100.765L97.7021 50.4943L100.958 54.9645H98.4091L96.3739 52.1581ZM47.2448 49.9373V48.4377H51.5293V46.6739H45.1597V54.9574H51.5293V53.1936H47.2448V51.6939H50.8224V49.9373H47.2448ZM76.8506 48.4377V49.9373H80.4281V51.6939H76.8506V53.1936H81.1351V54.9574H74.7658V46.6739H81.1351V48.4377H76.8506Z" fill="#3C4A41"/>
</g>
<defs>
<clipPath id="clip0_11_8357">
<rect width="100.629" height="15.4814" fill="white" transform="translate(0.436523 43.0867)"/>
</clipPath>
</defs>
</svg>
