<svg width="102" height="102" viewBox="0 0 102 102" fill="none" xmlns="http://www.w3.org/2000/svg">
<g clip-path="url(#clip0_11_8444)">
<path d="M36.0609 56.8611L37.0434 54.5648C38.1191 55.3614 39.5222 55.7831 40.9256 55.7831C41.9547 55.7831 42.6095 55.3849 42.6095 54.7758C42.586 53.0886 36.4117 54.4008 36.3648 50.1589C36.3413 48.0031 38.2593 46.3394 40.9726 46.3394C42.586 46.3394 44.2001 46.7379 45.3459 47.6519L44.4278 49.9972C43.3736 49.3193 42.0714 48.8467 40.832 48.8467C39.9901 48.8467 39.4286 49.2449 39.4286 49.7608C39.4521 51.4245 45.6736 50.5104 45.7437 54.5648C45.7437 56.7676 43.8724 58.3142 41.206 58.3142C39.2418 58.3142 37.4412 57.8456 36.0609 56.8611ZM75.1814 53.7333C74.9334 54.1739 74.5727 54.5406 74.1362 54.7959C73.6997 55.0511 73.2032 55.1856 72.6975 55.1857C71.1217 55.1857 69.8444 53.9057 69.8444 52.3268C69.8444 50.7479 71.1217 49.4679 72.6975 49.4679C73.2032 49.468 73.6997 49.6025 74.1362 49.8577C74.5727 50.113 74.9334 50.4797 75.1814 50.9203L77.9128 49.4042C76.8897 47.5758 74.9382 46.3394 72.6975 46.3394C69.3972 46.3394 66.7218 49.0198 66.7218 52.3268C66.7218 55.6335 69.3972 58.3142 72.6975 58.3142C74.9382 58.3142 76.8897 57.0778 77.9128 55.2494L75.1814 53.7333ZM47.5161 58.0798H50.9308V41.3552H47.5165L47.5161 58.0798ZM79.6372 41.3552V58.0798H83.0519V53.0691L87.0982 58.0798H91.4628L86.3173 52.1272L91.0885 46.5728H86.911L83.0519 51.1907V41.3552H79.6372ZM61.4509 46.5735V47.933C60.8897 46.9955 59.5098 46.3394 58.0597 46.3394C55.066 46.3394 52.7039 48.9876 52.7039 52.3151C52.7039 55.6425 55.066 58.3142 58.0597 58.3142C59.5098 58.3142 60.8897 57.6581 61.4509 56.7206V58.0798H64.8656V46.5735H61.4509ZM61.4509 53.7564C60.9598 54.5765 59.9307 55.1853 58.7849 55.1853C57.2087 55.1853 55.9314 53.9057 55.9314 52.3268C55.9314 50.7479 57.2087 49.4679 58.7849 49.4679C59.9307 49.4679 60.9598 50.1006 61.4509 50.9438V53.7564Z" fill="#3C4A41"/>
<path d="M18.0277 40.9875C16.9212 40.9875 16.0242 41.8865 16.0242 42.9951C16.0239 43.2585 16.0756 43.5193 16.1761 43.7627C16.2766 44.0062 16.4242 44.2274 16.6102 44.4138C16.7962 44.6002 17.0172 44.7482 17.2604 44.8492C17.5036 44.9502 17.7644 45.0024 18.0277 45.0026H20.0316V42.9951C20.032 42.4632 19.8212 41.9528 19.4454 41.5764C19.0696 41.1999 18.5597 40.9881 18.0277 40.9875ZM18.0277 46.341H12.6847C11.5781 46.341 10.6812 47.24 10.6812 48.3489C10.6812 49.4575 11.5781 50.3564 12.6847 50.3564H18.0281C19.1343 50.3564 20.0316 49.4575 20.0316 48.3489C20.0316 47.24 19.1343 46.341 18.0277 46.341Z" fill="#3C4A41"/>
<path d="M30.7176 48.3489C30.7176 47.24 29.8204 46.341 28.7138 46.341C27.6072 46.341 26.7102 47.24 26.7102 48.3489V50.3564H28.7138C29.2457 50.3559 29.7556 50.1441 30.1314 49.7676C30.5072 49.3911 30.7181 48.8808 30.7176 48.3489ZM25.3746 48.3489V42.9951C25.375 42.4632 25.1642 41.9528 24.7884 41.5764C24.4126 41.1999 23.9026 40.9881 23.3707 40.9875C22.2641 40.9875 21.3672 41.8865 21.3672 42.9951V48.3486C21.3672 49.4578 22.2641 50.3568 23.3707 50.3568C23.9026 50.3562 24.4126 50.1444 24.7884 49.768C25.1642 49.3915 25.375 48.8808 25.3746 48.3489Z" fill="#3C4A41"/>
<path d="M23.3707 61.064C23.9026 61.0634 24.4126 60.8516 24.7884 60.4751C25.1642 60.0987 25.375 59.5883 25.3746 59.0564C25.375 58.5245 25.1642 58.0142 24.7884 57.6377C24.4126 57.2612 23.9026 57.0494 23.3707 57.0489H21.3672V59.0564C21.3672 60.165 22.2641 61.064 23.3707 61.064ZM23.3707 55.7105H28.7141C29.8204 55.7105 30.7176 54.8115 30.7176 53.7026C30.7181 53.1707 30.5072 52.6604 30.1314 52.2839C29.7556 51.9074 29.2457 51.6956 28.7138 51.6951H23.3707C22.2641 51.6951 21.3672 52.594 21.3672 53.7026C21.3669 53.966 21.4185 54.2268 21.5191 54.4703C21.6196 54.7137 21.7671 54.9349 21.9532 55.1213C22.1392 55.3078 22.3602 55.4557 22.6034 55.5567C22.8466 55.6578 23.1073 55.7102 23.3707 55.7105Z" fill="#3C4A41"/>
<path d="M10.6812 53.6994C10.6809 53.9628 10.7325 54.2237 10.833 54.4671C10.9336 54.7105 11.0811 54.9317 11.2671 55.1182C11.4532 55.3046 11.6741 55.4525 11.9173 55.5536C12.1606 55.6546 12.4213 55.7067 12.6847 55.707C13.2166 55.7065 13.7265 55.4947 14.1023 55.1182C14.4781 54.7417 14.689 54.2314 14.6885 53.6994V51.6919H12.6847C11.5781 51.6919 10.6812 52.5908 10.6812 53.6994ZM16.0242 53.6994V59.0529C16.0242 60.1618 16.9212 61.0608 18.0277 61.0608C18.5597 61.0602 19.0696 60.8485 19.4454 60.472C19.8212 60.0955 20.032 59.5852 20.0316 59.0532V53.6994C20.0319 53.436 19.9802 53.1752 19.8797 52.9317C19.7791 52.6883 19.6316 52.467 19.4455 52.2806C19.2594 52.0942 19.0384 51.9462 18.7952 51.8452C18.5519 51.7442 18.2911 51.6921 18.0277 51.6919C16.9212 51.6919 16.0242 52.5908 16.0242 53.6994Z" fill="#3C4A41"/>
</g>
<defs>
<clipPath id="clip0_11_8444">
<rect width="80.5032" height="20.1258" fill="white" transform="translate(10.6812 40.937)"/>
</clipPath>
</defs>
</svg>
