<svg width="101" height="102" viewBox="0 0 101 102" fill="none" xmlns="http://www.w3.org/2000/svg">
<g clip-path="url(#clip0_11_8396)">
<path d="M35.6903 56.8611L36.6728 54.5648C37.7485 55.3614 39.1516 55.7831 40.555 55.7831C41.5841 55.7831 42.2389 55.3849 42.2389 54.7758C42.2154 53.0886 36.0411 54.4008 35.9942 50.1589C35.9707 48.0031 37.8887 46.3394 40.602 46.3394C42.2154 46.3394 43.8295 46.7379 44.9753 47.6519L44.0572 49.9972C43.003 49.3193 41.7008 48.8467 40.4614 48.8467C39.6195 48.8467 39.058 49.2449 39.058 49.7608C39.0815 51.4245 45.303 50.5104 45.3731 54.5648C45.3731 56.7676 43.5018 58.3142 40.8354 58.3142C38.8712 58.3142 37.0706 57.8456 35.6903 56.8611ZM74.8108 53.7333C74.5628 54.1739 74.202 54.5406 73.7656 54.7959C73.3291 55.0511 72.8326 55.1856 72.3269 55.1857C70.7511 55.1857 69.4738 53.9057 69.4738 52.3268C69.4738 50.7479 70.7511 49.4679 72.3269 49.4679C72.8326 49.468 73.3291 49.6025 73.7656 49.8577C74.202 50.113 74.5628 50.4797 74.8108 50.9203L77.5422 49.4042C76.5191 47.5758 74.5676 46.3394 72.3269 46.3394C69.0266 46.3394 66.3512 49.0198 66.3512 52.3268C66.3512 55.6335 69.0266 58.3142 72.3269 58.3142C74.5676 58.3142 76.5191 57.0778 77.5422 55.2494L74.8108 53.7333ZM47.1455 58.0798H50.5602V41.3552H47.1459L47.1455 58.0798ZM79.2666 41.3552V58.0798H82.6813V53.0691L86.7276 58.0798H91.0922L85.9467 52.1272L90.7179 46.5728H86.5404L82.6813 51.1907V41.3552H79.2666ZM61.0803 46.5735V47.933C60.5191 46.9955 59.1392 46.3394 57.6891 46.3394C54.6954 46.3394 52.3333 48.9876 52.3333 52.3151C52.3333 55.6425 54.6954 58.3142 57.6891 58.3142C59.1392 58.3142 60.5191 57.6581 61.0803 56.7206V58.0798H64.495V46.5735H61.0803ZM61.0803 53.7564C60.5892 54.5765 59.5601 55.1853 58.4143 55.1853C56.8381 55.1853 55.5608 53.9057 55.5608 52.3268C55.5608 50.7479 56.8381 49.4679 58.4143 49.4679C59.5601 49.4679 60.5892 50.1006 61.0803 50.9438V53.7564Z" fill="#3C4A41"/>
<path d="M17.6571 40.9875C16.5505 40.9875 15.6536 41.8865 15.6536 42.9951C15.6533 43.2585 15.705 43.5193 15.8055 43.7627C15.906 44.0062 16.0535 44.2274 16.2396 44.4138C16.4256 44.6002 16.6466 44.7482 16.8898 44.8492C17.133 44.9502 17.3938 45.0024 17.6571 45.0026H19.661V42.9951C19.6614 42.4632 19.4506 41.9528 19.0748 41.5764C18.699 41.1999 18.1891 40.9881 17.6571 40.9875ZM17.6571 46.341H12.3141C11.2075 46.341 10.3105 47.24 10.3105 48.3489C10.3105 49.4575 11.2075 50.3564 12.3141 50.3564H17.6575C18.7637 50.3564 19.661 49.4575 19.661 48.3489C19.661 47.24 18.7637 46.341 17.6571 46.341Z" fill="#3C4A41"/>
<path d="M30.347 48.3489C30.347 47.24 29.4497 46.341 28.3432 46.341C27.2366 46.341 26.3396 47.24 26.3396 48.3489V50.3564H28.3432C28.8751 50.3559 29.385 50.1441 29.7608 49.7676C30.1366 49.3911 30.3475 48.8808 30.347 48.3489ZM25.004 48.3489V42.9951C25.0044 42.4632 24.7935 41.9528 24.4178 41.5764C24.042 41.1999 23.532 40.9881 23.0001 40.9875C21.8935 40.9875 20.9966 41.8865 20.9966 42.9951V48.3486C20.9966 49.4578 21.8935 50.3568 23.0001 50.3568C23.532 50.3562 24.042 50.1444 24.4178 49.768C24.7935 49.3915 25.0044 48.8808 25.004 48.3489Z" fill="#3C4A41"/>
<path d="M23.0001 61.064C23.532 61.0634 24.042 60.8516 24.4178 60.4751C24.7935 60.0987 25.0044 59.5883 25.004 59.0564C25.0044 58.5245 24.7935 58.0142 24.4178 57.6377C24.042 57.2612 23.532 57.0494 23.0001 57.0489H20.9966V59.0564C20.9966 60.165 21.8935 61.064 23.0001 61.064ZM23.0001 55.7105H28.3435C29.4497 55.7105 30.347 54.8115 30.347 53.7026C30.3475 53.1707 30.1366 52.6604 29.7608 52.2839C29.385 51.9074 28.8751 51.6956 28.3432 51.6951H23.0001C21.8935 51.6951 20.9966 52.594 20.9966 53.7026C20.9963 53.966 21.0479 54.2268 21.1485 54.4703C21.249 54.7137 21.3965 54.9349 21.5826 55.1213C21.7686 55.3078 21.9896 55.4557 22.2328 55.5567C22.476 55.6578 22.7367 55.7102 23.0001 55.7105Z" fill="#3C4A41"/>
<path d="M10.3105 53.6994C10.3103 53.9628 10.3619 54.2237 10.4624 54.4671C10.563 54.7105 10.7105 54.9317 10.8965 55.1182C11.0826 55.3046 11.3035 55.4525 11.5467 55.5536C11.79 55.6546 12.0507 55.7067 12.3141 55.707C12.846 55.7065 13.3559 55.4947 13.7317 55.1182C14.1075 54.7417 14.3184 54.2314 14.3179 53.6994V51.6919H12.3141C11.2075 51.6919 10.3105 52.5908 10.3105 53.6994ZM15.6536 53.6994V59.0529C15.6536 60.1618 16.5505 61.0608 17.6571 61.0608C18.1891 61.0602 18.699 60.8485 19.0748 60.472C19.4506 60.0955 19.6614 59.5852 19.661 59.0532V53.6994C19.6613 53.436 19.6096 53.1752 19.5091 52.9317C19.4085 52.6883 19.261 52.467 19.0749 52.2806C18.8888 52.0942 18.6678 51.9462 18.4246 51.8452C18.1813 51.7442 17.9205 51.6921 17.6571 51.6919C16.5505 51.6919 15.6536 52.5908 15.6536 53.6994Z" fill="#3C4A41"/>
</g>
<defs>
<clipPath id="clip0_11_8396">
<rect width="80.5032" height="20.1258" fill="white" transform="translate(10.3105 40.937)"/>
</clipPath>
</defs>
</svg>
